# xmcd CD database file
#
# Track frame offsets:
#	150
#	17865
#	37195
#	51794
#	71935
#	85764
#	98167
#	118619
#	136614
#	158393
#	176181
#	186859
#
# Disc length: 2779 seconds
#
# Revision: 0
# Processed by: cddbd v1.5.2PL0 Copyright (c) Steve Scherf et al.
# Submitted via: CDex 1.70beta2
#
DISCID=9e0ad90c
DTITLE=Various Artist - Smooth Island Jazz
DYEAR=1900
DGENRE=Jazz
TTITLE0=Sittin' Around featuring John Cruz
TTITLE1=Nightbird featuring Malani Bilyeu
TTITLE2=Eku`u Morning Dew featuring Moon Brown
TTITLE3=About You featuring Sean Na`Auao
TTITLE4=Ku`u Lei Awapuhi featuring Kivin Kalauli
TTITLE5=Kona Winds featuring Charles Ka`upu
TTITLE6=Naturally featuring Malani Bilyeu
TTITLE7=Honolulu City Lights
TTITLE8=Island Style featuring John Cruz
TTITLE9=White Sandy Beach featuring Reggie Griffin
TTITLE10=After the Storm featuring Rayford Griffin
TTITLE11=Harvest of Rainbows featuring Ginai
EXTD=
EXTT0=
EXTT1=
EXTT2=
EXTT3=
EXTT4=
EXTT5=
EXTT6=
EXTT7=
EXTT8=
EXTT9=
EXTT10=
EXTT11=
PLAYORDER=
